<svg width="270" height="256" viewBox="0 0 270 256" fill="none" xmlns="http://www.w3.org/2000/svg">
<rect width="270" height="256" fill="#F5F5F5"/>
<g filter="url(#filter0_d_0_1)">
<g filter="url(#filter1_dn_0_1)">
<path d="M187.5 173C157.902 197.564 134 188.5 134 188.5L115.5 135.5C115.5 135.5 137.246 112.833 167.5 114.5" stroke="#C291D9" stroke-width="6"/>
</g>
<path d="M266 124C266 192.483 207.349 248 135 248C62.6507 248 4 192.483 4 124C4 55.5167 62.6507 0 135 0C207.349 0 266 55.5167 266 124Z" fill="url(#paint0_linear_0_1)"/>
<path d="M47.3222 202.657L39.8222 126.657L35.8222 55.657L69.8222 163.157L76.5 80L88 214.5" stroke="#A575BC" stroke-width="8"/>
<path d="M166.076 218L177.576 69.5L191.076 166L226.076 44L218.076 208" stroke="#4A4063" stroke-width="10"/>
<path d="M77.0196 70.2244L91.833 119.678C91.833 119.678 175.647 101.06 163.5 74.5C151.406 48.056 142.565 42.5277 77.6202 69.0037C77.1436 69.1981 76.8719 69.7313 77.0196 70.2244Z" fill="#4A4063"/>
<path d="M91.833 119.678L77.0196 70.2244C76.8719 69.7313 77.1436 69.1981 77.6202 69.0037C142.565 42.5277 151.406 48.056 163.5 74.5C175.647 101.06 91.833 119.678 91.833 119.678ZM91.833 119.678L114.759 203.855" stroke="#D9D9D9" stroke-width="8"/>
<path d="M190 175.5C162.295 198.101 130.636 192.749 130.636 192.749L109.605 133.798C109.605 133.798 139.916 107.249 168 108.5" stroke="#D9D9D9" stroke-width="8"/>
</g>
<defs>
<filter id="filter0_d_0_1" x="0" y="0" width="270" height="256" filterUnits="userSpaceOnUse" color-interpolation-filters="sRGB">
<feFlood flood-opacity="0" result="BackgroundImageFix"/>
<feColorMatrix in="SourceAlpha" type="matrix" values="0 0 0 0 0 0 0 0 0 0 0 0 0 0 0 0 0 0 127 0" result="hardAlpha"/>
<feOffset dy="4"/>
<feGaussianBlur stdDeviation="2"/>
<feComposite in2="hardAlpha" operator="out"/>
<feColorMatrix type="matrix" values="0 0 0 0 0 0 0 0 0 0 0 0 0 0 0 0 0 0 0.25 0"/>
<feBlend mode="normal" in2="BackgroundImageFix" result="effect1_dropShadow_0_1"/>
<feBlend mode="normal" in="SourceGraphic" in2="effect1_dropShadow_0_1" result="shape"/>
</filter>
<filter id="filter1_dn_0_1" x="106.061" y="111.412" width="85.3547" height="89.722" filterUnits="userSpaceOnUse" color-interpolation-filters="sRGB">
<feFlood flood-opacity="0" result="BackgroundImageFix"/>
<feColorMatrix in="SourceAlpha" type="matrix" values="0 0 0 0 0 0 0 0 0 0 0 0 0 0 0 0 0 0 127 0" result="hardAlpha"/>
<feOffset dx="-2" dy="4"/>
<feGaussianBlur stdDeviation="2"/>
<feComposite in2="hardAlpha" operator="out"/>
<feColorMatrix type="matrix" values="0 0 0 0 0 0 0 0 0 0 0 0 0 0 0 0 0 0 0.25 0"/>
<feBlend mode="normal" in2="BackgroundImageFix" result="effect1_dropShadow_0_1"/>
<feBlend mode="normal" in="SourceGraphic" in2="BackgroundImageFix" result="shape"/>
<feTurbulence type="fractalNoise" baseFrequency="9.0909090042114258 9.0909090042114258" stitchTiles="stitch" numOctaves="3" result="noise" seed="6929" />
<feColorMatrix in="noise" type="luminanceToAlpha" result="alphaNoise" />
<feComponentTransfer in="alphaNoise" result="coloredNoise1">
<feFuncA type="discrete" tableValues="0 0 0 0 1 1 1 1 1 1 1 1 1 1 1 1 1 1 1 1 1 1 1 1 1 1 1 1 1 1 1 1 1 1 1 1 1 1 1 1 1 1 1 1 1 0 0 0 0 0 0 0 0 0 0 0 0 0 0 0 0 0 0 0 0 0 0 0 0 0 0 0 0 0 0 0 0 0 0 0 0 0 0 0 0 0 0 0 0 0 0 0 0 0 0 0 0 0 0 0 "/>
</feComponentTransfer>
<feComposite operator="in" in2="shape" in="coloredNoise1" result="noise1Clipped" />
<feFlood flood-color="rgba(0, 0, 0, 0.25)" result="color1Flood" />
<feComposite operator="in" in2="noise1Clipped" in="color1Flood" result="color1" />
<feMerge result="effect2_noise_0_1">
<feMergeNode in="shape" />
<feMergeNode in="color1" />
</feMerge>
<feBlend mode="normal" in="effect2_noise_0_1" in2="effect1_dropShadow_0_1" result="effect2_noise_0_1"/>
</filter>
<linearGradient id="paint0_linear_0_1" x1="135" y1="0" x2="135" y2="248" gradientUnits="userSpaceOnUse">
<stop offset="0.264423" stop-color="#FFA237"/>
<stop offset="1" stop-color="#A575BC"/>
</linearGradient>
</defs>
</svg>
